<?xml version="1.0" standalone="no"?>
<!DOCTYPE svg PUBLIC "-//W3C//DTD SVG 20010904//EN"
 "http://www.w3.org/TR/2001/REC-SVG-20010904/DTD/svg10.dtd">
<svg version="1.0" xmlns="http://www.w3.org/2000/svg"
 width="959.000000pt" height="960.000000pt" viewBox="0 0 959.000000 960.000000"
 preserveAspectRatio="xMidYMid meet">

<g transform="translate(0.000000,960.000000) scale(0.100000,-0.100000)"
fill="#000000" stroke="none">
<path d="M0 4800 l0 -4800 4795 0 4795 0 0 4800 0 4800 -4795 0 -4795 0 0
-4800z m5060 3026 c0 -19 26 -40 34 -27 5 8 22 9 69 2 5 0 6 -4 4 -8 -3 -5 -1
-17 3 -29 6 -15 17 -21 39 -22 32 -1 67 -26 73 -52 2 -8 10 -20 18 -26 11 -9
12 -15 2 -26 -14 -18 -6 -28 22 -29 12 0 16 -3 9 -5 -15 -7 -6 -62 13 -85 8
-8 14 -21 14 -27 0 -8 9 -10 25 -6 19 5 25 2 25 -10 0 -8 9 -20 20 -26 11 -6
20 -17 20 -25 0 -8 9 -19 20 -25 22 -12 27 -49 8 -68 -17 -17 0 -28 22 -14 12
7 20 8 20 2 0 -5 -4 -10 -9 -10 -4 0 -7 -10 -6 -22 3 -32 3 -32 19 -19 20 16
39 -10 30 -43 -4 -16 -2 -26 5 -26 6 0 11 8 11 18 0 11 8 5 22 -18 11 -19 33
-53 48 -75 28 -42 38 -64 36 -78 0 -5 7 -13 17 -18 11 -7 17 -22 17 -44 0 -28
4 -36 24 -41 14 -3 32 -17 42 -31 16 -25 16 -27 -5 -42 -12 -9 -19 -20 -15
-24 4 -4 15 0 24 8 16 15 19 13 38 -17 12 -18 29 -43 38 -56 16 -21 16 -24 -2
-38 -14 -11 -15 -17 -6 -20 6 -3 12 -12 12 -20 0 -8 6 -14 13 -13 26 4 47 -14
53 -47 3 -19 9 -32 13 -30 13 9 30 -10 33 -37 2 -15 13 -34 23 -42 19 -15 19
-16 -3 -5 -13 6 -33 10 -45 8 -22 -3 -22 -3 -2 -20 11 -10 31 -28 44 -40 19
-16 23 -17 18 -5 -4 11 -1 17 7 17 9 0 12 -8 8 -25 -5 -31 -14 -31 -46 -2 -50
46 -87 75 -104 83 -16 7 -16 7 1 11 21 5 21 8 0 33 -19 22 -43 26 -59 10 -16
-16 -39 -2 -52 32 -9 25 -14 29 -26 19 -8 -7 -31 -10 -55 -7 -23 2 -39 1 -36
-3 2 -5 -15 -14 -38 -21 -23 -7 -49 -15 -57 -18 -8 -3 -37 -13 -65 -23 -27 -9
-44 -17 -37 -18 20 -2 4 -21 -17 -21 -10 0 -26 -11 -35 -25 -20 -30 -36 -32
-36 -5 0 23 -15 27 -24 5 -3 -8 1 -20 8 -28 18 -18 -6 -52 -37 -52 -18 0 -22
-6 -22 -30 0 -18 -9 -39 -23 -53 -12 -12 -20 -27 -16 -33 3 -6 -4 -13 -16 -16
-14 -4 -19 -11 -15 -21 3 -8 -13 -46 -37 -85 -36 -59 -43 -67 -53 -53 -7 9
-18 16 -25 16 -9 0 -8 -6 4 -19 11 -12 15 -27 11 -44 -7 -27 -30 -42 -41 -26
-3 6 -14 1 -25 -12 -27 -31 -24 -44 7 -24 14 9 28 14 32 11 7 -8 -19 -56 -30
-56 -5 0 -6 5 -3 10 3 6 1 10 -4 10 -6 0 -11 -5 -11 -10 0 -6 -3 -9 -7 -9 -18
3 -21 -3 -14 -28 10 -35 -5 -93 -30 -116 -10 -10 -19 -24 -19 -32 0 -8 -4 -15
-8 -15 -5 0 -16 -17 -25 -37 -9 -21 -21 -45 -26 -53 -13 -20 -39 -71 -47 -92
-3 -10 -14 -18 -23 -18 -9 0 -22 -5 -29 -12 -9 -9 -12 -9 -12 0 0 7 -7 12 -15
12 -24 0 -17 -20 10 -30 30 -12 33 -45 5 -62 -11 -7 -20 -21 -20 -31 0 -34
-20 -58 -43 -53 -12 3 -16 3 -9 0 6 -3 12 -11 12 -17 0 -23 -44 -107 -56 -107
-7 0 -20 -10 -28 -22 -9 -12 -16 -17 -16 -10 0 6 -7 12 -15 12 -10 0 -16 -11
-16 -30 -1 -16 -2 -36 -3 -42 -1 -7 -8 -18 -16 -25 -13 -10 -13 -12 3 -18 21
-9 23 -35 2 -35 -8 0 -18 -12 -21 -27 -11 -44 -45 -83 -72 -83 -21 0 -23 -3
-17 -27 8 -32 8 -33 6 -56 0 -10 -5 -16 -10 -12 -14 8 -32 -30 -24 -51 4 -12
3 -15 -5 -10 -7 4 -14 1 -16 -6 -27 -95 -29 -99 -51 -94 -15 4 -29 -2 -45 -19
-20 -21 -21 -25 -7 -25 9 0 17 5 17 10 0 6 5 10 11 10 6 0 9 -10 7 -22 -2 -18
-10 -23 -33 -23 -20 0 -31 -6 -33 -17 -2 -10 1 -18 7 -18 6 0 11 -13 11 -28 0
-21 -7 -32 -25 -40 -23 -10 -30 -26 -26 -58 2 -20 -27 -36 -50 -29 -20 7 -20
9 -6 17 17 9 46 54 30 46 -4 -2 -20 -10 -35 -17 -28 -14 -64 -8 -53 9 4 6 -7
15 -24 21 -17 6 -31 17 -31 25 0 8 -6 14 -13 14 -7 0 -23 11 -35 25 -12 14
-28 25 -34 25 -10 0 -9 3 1 9 21 13 4 31 -30 31 -22 0 -42 13 -84 54 -30 30
-57 66 -61 81 -4 16 -10 22 -14 16 -4 -8 -12 -5 -25 9 -15 16 -16 22 -5 35 17
21 5 31 -16 14 -14 -11 -19 -9 -37 16 -12 16 -22 44 -23 62 0 19 -8 39 -18 46
-9 6 -20 25 -24 41 -5 16 -13 31 -20 34 -17 5 -15 -18 4 -39 14 -16 14 -17 -3
-15 -20 3 -48 49 -33 54 6 2 1 16 -10 32 -11 15 -20 35 -20 43 0 10 -7 13 -20
10 -13 -4 -22 1 -27 13 -3 11 -15 30 -25 43 -25 33 -23 80 8 140 26 53 32 60
31 39 -1 -34 4 -49 16 -45 6 2 12 16 12 30 1 14 4 29 8 33 11 11 8 36 -3 29
-13 -8 0 26 17 43 7 7 13 20 13 28 0 8 8 14 19 14 15 0 19 8 19 41 1 50 26 93
52 86 10 -2 23 -1 30 3 17 10 3 31 -15 23 -8 -3 -15 0 -15 7 0 6 9 14 20 17
14 4 20 14 20 33 0 16 7 30 16 34 9 3 14 12 12 18 -3 7 1 19 9 26 7 7 13 24
13 37 0 12 6 25 13 28 10 4 13 -2 9 -21 -3 -15 -1 -24 3 -20 4 4 7 25 7 48 -1
30 4 43 19 50 10 6 18 16 16 23 -1 6 8 13 21 15 23 3 29 16 13 26 -12 8 22 96
42 111 9 7 21 23 26 36 7 17 10 19 10 7 1 -10 6 -18 11 -18 6 0 10 8 11 18 4
65 9 84 28 110 11 17 21 39 21 50 0 30 18 37 23 10 4 -20 4 -19 6 5 0 15 5 27
10 27 5 0 7 9 4 20 -3 12 4 28 23 46 17 14 28 34 26 45 -5 32 17 62 43 56 27
-5 44 21 23 34 -9 6 -4 17 21 43 29 30 33 41 33 81 -1 38 2 48 18 52 11 3 22
19 27 41 7 30 13 36 30 34 28 -4 36 11 22 42 -10 20 -9 30 5 51 9 14 21 23 26
20 6 -4 10 3 10 14 0 23 10 27 27 10 14 -14 35 -2 32 19 -1 10 1 25 5 34 5 10
6 23 3 30 -3 7 -6 3 -6 -8 -1 -23 -27 -51 -38 -40 -3 3 0 18 7 34 7 15 20 42
29 61 9 18 22 35 29 38 6 3 12 16 12 29 0 13 4 24 9 24 5 0 13 10 16 21 6 17
9 19 17 8 7 -10 8 -5 4 18 -3 21 0 35 10 44 8 7 14 8 13 3 -4 -22 3 -24 31 -9
33 17 44 65 15 65 -8 0 -15 -4 -15 -10 0 -5 -4 -10 -10 -10 -5 0 -10 7 -10 16
0 13 7 15 36 11 27 -5 33 -3 26 6 -19 25 -23 66 -6 75 13 7 20 23 23 54 1 4
14 21 30 37 17 17 36 54 46 87 18 62 43 103 63 104 6 0 12 5 12 11 0 19 71 78
101 84 39 9 50 -2 24 -22 -19 -14 -17 -15 25 -9 53 8 57 11 40 31 -11 13 -8
15 19 15 20 0 31 -5 31 -14z m307 -278 c-11 -17 -12 -17 -19 2 -4 11 -5 27 -1
35 5 14 7 13 18 -2 10 -13 10 -21 2 -35z m28 -18 c3 -5 1 -10 -4 -10 -6 0 -11
5 -11 10 0 6 2 10 4 10 3 0 8 -4 11 -10z m365 -908 c0 -5 -13 -7 -30 -4 -16 2
-30 6 -30 8 0 2 14 4 30 4 17 0 30 -4 30 -8z m328 -242 c8 -16 11 -34 7 -39
-3 -6 3 -19 15 -31 17 -17 28 -50 16 -50 -10 0 -56 91 -51 100 3 5 -5 15 -19
21 -27 13 -26 29 2 29 9 0 23 -13 30 -30z m122 -226 c0 -8 -4 -12 -10 -9 -5 3
-10 10 -10 16 0 5 5 9 10 9 6 0 10 -7 10 -16z m55 -70 c17 -42 19 -54 5 -54
-8 0 -30 60 -30 83 0 17 11 4 25 -29z m-3133 -615 c50 -26 101 -97 187 -263
165 -319 370 -557 671 -782 111 -84 227 -157 320 -201 52 -25 115 -56 140 -69
84 -42 276 -111 389 -139 33 -8 87 -21 119 -29 81 -21 250 -46 372 -56 255
-22 534 -4 790 49 95 19 317 88 377 116 17 8 36 15 43 15 53 0 448 219 539
299 13 12 27 21 31 21 15 0 149 115 257 222 62 60 118 108 124 106 21 -7 32
-34 26 -59 -6 -24 -43 -82 -95 -150 -15 -20 -47 -62 -71 -95 -259 -344 -565
-581 -946 -730 -766 -300 -1560 -308 -2285 -22 -196 77 -576 295 -680 390 -14
13 -48 41 -75 63 -64 51 -238 226 -290 290 -22 27 -48 59 -58 70 -42 45 -180
261 -232 362 -84 163 -108 233 -109 328 -1 70 3 86 28 133 72 129 296 198 428
131z m-554 -552 c25 -17 48 -52 94 -147 167 -339 349 -561 653 -793 88 -67
304 -207 319 -207 2 0 30 -15 63 -33 210 -119 632 -259 918 -306 266 -43 300
-46 605 -46 241 0 335 4 447 19 160 21 193 18 193 -18 0 -13 -6 -28 -12 -34
-37 -30 -267 -75 -573 -113 -275 -33 -580 -20 -948 41 -518 86 -1013 308
-1397 626 -84 69 -291 279 -318 322 -9 15 -39 59 -67 97 -72 100 -164 275
-200 382 -23 66 -20 143 8 183 41 62 144 75 215 27z m158 -1116 c21 -11 48
-30 60 -43 25 -28 76 -68 86 -68 4 0 8 -13 8 -29 0 -33 17 -51 26 -27 10 25
24 19 24 -10 0 -22 4 -25 21 -21 37 10 159 -70 159 -104 0 -5 9 -9 20 -9 11 0
23 -7 26 -15 4 -8 12 -15 20 -15 15 0 19 -16 6 -22 -4 -1 -2 -14 5 -28 9 -17
13 -20 13 -8 0 9 6 18 13 21 23 8 37 -5 37 -34 0 -16 5 -29 10 -29 6 0 10 4
10 9 0 5 9 7 20 4 14 -4 20 0 20 12 0 17 1 17 18 2 10 -10 24 -17 30 -17 6 0
17 -8 24 -17 18 -24 49 -40 92 -48 20 -4 36 -12 35 -19 -3 -26 2 -35 16 -30
11 5 15 -1 15 -25 0 -17 -4 -31 -10 -31 -5 0 -13 -12 -16 -26 -4 -15 -18 -30
-33 -36 -24 -9 -24 -11 -7 -17 17 -7 18 -8 3 -14 -9 -3 -17 -17 -17 -30 0 -13
-14 -43 -30 -65 -17 -23 -29 -48 -28 -54 2 -8 -9 -14 -24 -16 -26 -3 -41 -22
-17 -22 13 0 4 -30 -29 -98 -22 -43 -30 -51 -47 -46 -14 4 -16 3 -6 -4 10 -7
10 -14 2 -29 -5 -11 -7 -24 -3 -28 4 -5 2 -5 -5 -1 -7 3 -14 -2 -18 -14 -7
-20 -35 -28 -35 -10 0 7 -13 8 -34 5 -36 -7 -86 3 -68 14 5 3 -45 5 -111 4
-318 -5 -379 -7 -339 -10 23 -2 42 -8 42 -14 0 -12 -22 -11 -169 6 -68 8 -127
12 -132 9 -9 -5 -113 -14 -190 -15 -45 -2 -81 9 -74 22 4 5 3 9 -2 9 -4 0 -13
11 -19 25 -9 19 -9 27 1 35 7 6 26 40 41 75 16 36 34 65 41 65 8 0 13 13 14
33 0 17 3 26 6 20 2 -7 17 -13 31 -13 l27 0 -23 18 c-19 15 -21 22 -14 43 6
14 17 31 26 38 9 7 16 20 16 27 0 20 22 56 43 72 9 7 17 20 17 28 0 8 9 14 20
14 17 0 19 5 14 44 -6 37 -3 46 13 55 11 5 23 25 27 42 5 29 9 31 35 26 19 -4
33 -1 41 8 10 12 7 17 -14 26 -30 14 -31 17 -10 47 16 23 44 30 44 11 0 -5 5
-7 10 -4 14 9 12 63 -2 68 -19 6 11 57 39 68 13 5 23 15 23 24 0 10 10 15 29
15 16 0 34 7 42 16 11 13 9 14 -12 9 -18 -4 -27 0 -37 15 -10 17 -10 21 3 26
8 4 15 12 15 19 0 7 7 18 15 25 8 7 12 16 9 21 -3 5 2 9 10 9 10 0 16 9 16 25
0 30 -3 30 46 6z m-601 -1101 c-3 -5 -17 -10 -31 -10 -13 0 -24 5 -24 10 0 6
14 10 31 10 17 0 28 -4 24 -10z m2149 -386 c10 -4 16 -18 16 -35 0 -22 -6 -30
-25 -35 -43 -11 -73 34 -43 64 13 13 28 15 52 6z m3740 -16 c24 -40 -44 -80
-71 -42 -17 23 -16 29 3 49 20 20 53 16 68 -7z m-6246 -256 c2 -182 4 -192 23
-203 13 -6 70 -9 154 -7 167 4 176 9 141 84 -27 59 -39 66 -125 73 -53 5 -65
10 -72 28 -14 39 11 57 90 61 113 7 154 -22 211 -148 44 -96 41 -93 112 -98
86 -5 92 2 98 137 l5 106 39 3 c24 2 42 -2 47 -10 5 -7 9 -59 9 -115 0 -119 5
-126 93 -121 l52 3 6 205 c3 113 6 206 7 206 10 7 46 11 62 7 20 -5 20 -12 18
-252 l-3 -246 -95 -3 c-76 -3 -102 0 -128 14 -29 16 -37 16 -65 4 -18 -8 -73
-15 -122 -18 -74 -3 -99 0 -138 17 l-48 21 -52 -20 c-43 -16 -77 -20 -190 -20
-148 0 -184 9 -209 53 -14 23 -25 377 -14 422 7 28 41 37 71 19 19 -11 20 -24
23 -202z m1171 204 c8 -9 11 -85 9 -252 l-3 -239 -34 -3 c-18 -2 -37 0 -42 5
-7 7 -12 213 -10 415 1 64 4 77 19 81 33 9 50 7 61 -7z m1811 4 c12 -8 16 -48
18 -233 3 -162 1 -231 -8 -247 -11 -21 -16 -22 -116 -18 -63 2 -108 8 -116 16
-16 16 -50 15 -84 -3 -38 -20 -105 -19 -147 1 -31 15 -36 15 -65 0 -25 -13
-64 -16 -196 -16 l-164 0 -7 -32 c-12 -57 -32 -84 -75 -103 -46 -21 -67 -15
-81 23 -6 15 -4 26 7 34 68 55 64 42 64 221 0 175 4 191 48 182 39 -7 42 -15
42 -115 0 -91 2 -100 22 -114 33 -23 95 -21 108 3 5 11 10 65 10 120 0 89 2
100 19 106 10 3 30 1 44 -4 26 -10 26 -12 29 -123 l3 -113 27 -3 c17 -2 34 4
47 17 18 18 21 33 21 116 0 94 0 96 26 106 53 20 61 8 67 -102 6 -111 19 -139
67 -139 56 0 65 18 68 142 4 125 12 142 60 129 l27 -7 5 -123 c6 -140 7 -143
90 -139 l55 3 3 200 c2 174 4 202 19 213 20 14 42 15 63 2z m218 -240 c3 -254
1 -263 -52 -258 l-31 3 -3 243 -2 243 22 8 c13 5 32 5 43 1 19 -7 20 -18 23
-240z m1023 71 c1 -242 4 -254 73 -249 l41 3 -3 65 c-3 55 0 70 20 100 13 19
39 45 58 58 31 21 44 23 107 19 79 -4 103 -17 103 -53 0 -31 -12 -36 -91 -38
-37 0 -73 -6 -79 -12 -20 -20 -28 -69 -16 -104 l11 -35 95 -5 95 -5 3 -29 c2
-16 -2 -32 -10 -37 -7 -5 -102 -9 -211 -9 -293 0 -287 -6 -287 295 0 191 0
196 22 204 11 4 32 6 45 3 23 -4 23 -4 24 -171z m1294 159 c3 -4 -29 -43 -70
-86 -41 -42 -75 -83 -75 -89 0 -8 29 -14 83 -17 111 -7 144 -25 172 -92 18
-42 18 -59 4 -126 -18 -82 -11 -80 -259 -80 -120 0 -230 4 -244 10 -43 16 -61
56 -66 149 -5 81 -6 86 -29 89 -39 6 -67 -6 -79 -33 -28 -61 -6 -120 50 -135
45 -13 51 -41 13 -66 -55 -36 -135 15 -160 101 -37 127 44 218 192 214 101 -3
101 -2 105 -117 2 -65 8 -105 17 -116 12 -14 35 -16 190 -14 l176 3 3 51 c3
50 2 52 -32 68 -24 11 -61 16 -124 16 -83 0 -92 2 -106 22 -32 45 -21 70 70
166 47 50 95 92 107 94 26 4 55 -1 62 -12z m-1500 -240 l0 -245 -85 -3 c-63
-2 -94 1 -122 14 -35 16 -41 16 -75 1 -21 -9 -71 -18 -112 -20 -87 -5 -101
-17 -101 -83 0 -46 -19 -74 -50 -74 -70 0 -66 134 6 210 l34 36 0 112 c0 112
0 113 26 122 47 18 146 12 194 -12 57 -29 81 -71 85 -147 1 -33 6 -64 9 -70
10 -15 79 -14 94 1 8 8 12 68 12 203 0 106 3 195 7 199 4 4 23 6 43 4 l35 -3
0 -245z m-4724 210 c21 -12 25 -50 7 -68 -31 -31 -95 1 -82 42 11 36 38 45 75
26z m1494 -35 c0 -34 -23 -50 -58 -41 -22 5 -27 12 -27 36 0 35 23 50 59 41
20 -6 26 -14 26 -36z m936 35 c5 0 9 -16 9 -35 0 -28 -4 -36 -24 -41 -34 -8
-66 12 -66 42 0 26 32 47 58 38 8 -2 18 -4 23 -4z m133 -6 c9 -8 16 -22 16
-29 0 -36 -65 -60 -88 -32 -17 20 -3 65 22 70 11 2 24 5 28 6 4 0 14 -6 22
-15z m714 10 c17 -5 22 -14 22 -40 0 -27 -5 -35 -24 -40 -43 -11 -66 3 -66 41
0 31 5 36 40 44 3 0 15 -2 28 -5z m2420 -3 c8 -5 12 -22 10 -42 -3 -29 -7 -34
-31 -37 -35 -4 -57 13 -57 44 0 35 46 56 78 35z m1190 -3 c7 -7 12 -21 12 -33
0 -28 -19 -45 -50 -45 -32 0 -50 17 -50 47 0 36 61 58 88 31z m132 -2 c15 -19
9 -56 -11 -69 -9 -5 -28 -7 -42 -3 -23 5 -27 12 -27 40 0 19 6 37 13 39 24 10
55 7 67 -7z m-7132 -30 c4 -32 -10 -46 -49 -46 -35 0 -53 23 -45 55 6 24 11
26 49 23 38 -3 42 -6 45 -32z m1476 18 c18 -46 -8 -73 -60 -60 -18 5 -24 13
-24 35 0 35 6 41 46 41 20 0 34 -6 38 -16z m1806 -18 c0 -39 -22 -53 -66 -42
-18 5 -24 13 -24 35 0 36 6 41 52 41 37 0 38 -1 38 -34z m2676 7 c5 -19 2 -30
-11 -40 -39 -27 -85 -10 -85 32 0 30 8 35 51 35 33 0 40 -4 45 -27z m1336 -97
c13 -19 9 -311 -4 -324 -18 -18 -169 -15 -217 4 -33 13 -43 13 -63 2 -15 -9
-78 -15 -193 -18 l-169 -5 -7 -34 c-10 -47 -40 -84 -83 -100 -33 -12 -38 -12
-56 4 -28 26 -25 51 10 71 16 10 32 25 36 33 3 9 8 85 10 170 2 84 6 162 9
172 9 26 61 26 75 0 5 -11 10 -63 10 -115 0 -109 7 -120 83 -114 l42 3 3 109
c3 115 10 136 46 136 39 0 46 -18 46 -125 0 -65 4 -105 12 -113 20 -20 55 -13
77 14 18 22 21 41 21 115 0 92 7 105 50 104 35 -1 40 -15 40 -110 0 -90 1 -94
27 -115 19 -14 38 -20 62 -18 l36 3 2 110 c2 61 5 120 8 132 7 31 68 38 87 9z
m-7160 -23 c15 -13 18 -32 18 -108 0 -120 5 -127 95 -123 l70 3 5 110 c3 61 9
116 13 123 10 15 41 16 68 2 17 -10 19 -22 19 -146 0 -74 -5 -144 -10 -155
-10 -17 -22 -19 -140 -19 -71 0 -139 5 -152 11 -44 20 -59 55 -66 147 l-7 87
-33 3 c-63 6 -96 -54 -68 -121 11 -27 23 -38 48 -45 38 -9 49 -40 23 -66 -22
-22 -52 -20 -100 7 -49 27 -75 76 -75 140 0 74 43 138 106 157 53 15 166 12
186 -7z m486 5 c15 -15 16 -287 1 -357 -18 -84 -103 -138 -141 -91 -24 30 -20
52 15 68 34 16 36 24 41 214 2 86 7 162 11 167 9 15 58 14 73 -1z m2080 -2
c17 -10 17 -407 0 -424 -8 -8 -62 -12 -178 -12 -182 0 -214 8 -254 63 -18 24
-21 43 -21 120 l0 92 40 0 40 0 6 -74 c5 -65 9 -77 33 -98 25 -21 36 -23 130
-23 71 0 107 4 113 13 11 13 17 230 7 259 -8 26 -68 24 -95 -3 -16 -16 -19
-30 -17 -72 3 -50 4 -53 46 -72 45 -21 52 -38 25 -67 -22 -24 -48 -23 -98 7
-71 41 -95 136 -55 215 20 39 59 73 95 83 27 8 168 2 183 -7z m-2410 -385 c8
-5 12 -21 10 -37 -3 -27 -6 -29 -43 -29 -34 0 -40 3 -43 23 -2 13 -1 30 2 38
6 15 53 19 74 5z m130 0 c8 -5 12 -21 10 -37 -3 -27 -6 -29 -43 -29 -34 0 -40
3 -43 23 -2 13 -1 30 2 38 6 15 53 19 74 5z m677 -11 c12 -38 -3 -60 -41 -60
-27 0 -37 5 -43 23 -13 34 4 57 44 57 25 0 35 -5 40 -20z m-393 -301 c10 -5
25 -21 34 -34 13 -20 14 -28 4 -40 -17 -20 -24 -19 -59 11 -42 35 -95 31 -99
-7 -4 -32 8 -41 77 -64 70 -23 101 -53 101 -98 0 -70 -68 -114 -163 -104 -41
3 -56 11 -79 36 -33 37 -35 56 -8 71 18 10 25 6 51 -21 34 -36 83 -45 113 -20
34 28 19 48 -64 81 -44 18 -87 42 -95 53 -38 54 1 129 75 149 29 7 86 1 112
-13z m3808 -8 c31 -22 49 -66 33 -82 -17 -17 -57 -3 -68 23 -8 18 -19 24 -56
26 -38 2 -50 -1 -72 -24 -36 -35 -42 -134 -11 -181 19 -30 86 -50 119 -35 37
17 34 57 -6 77 -19 10 -29 22 -27 33 4 22 106 31 119 10 5 -7 9 -43 9 -79 0
-84 -10 -93 -104 -97 -132 -6 -196 52 -196 176 0 68 13 103 54 141 45 43 154
49 206 12z m522 -3 c36 -25 55 -67 36 -80 -23 -14 -39 -9 -66 22 -20 23 -35
30 -64 30 -55 0 -78 -34 -78 -116 0 -80 11 -108 49 -124 37 -15 87 1 96 31 8
25 44 35 62 16 18 -17 9 -39 -32 -77 -23 -22 -36 -25 -96 -25 -65 0 -70 2
-104 35 -69 70 -67 219 4 284 44 40 140 42 193 4z m343 11 c92 -45 109 -223
28 -301 -29 -28 -41 -33 -96 -36 -52 -3 -67 0 -97 20 -48 32 -70 80 -70 154 0
96 37 158 105 177 31 9 98 1 130 -14z m-5314 -10 c6 -12 19 -44 29 -72 10 -29
32 -90 49 -136 37 -100 37 -107 10 -114 -20 -5 -26 -1 -74 56 -11 12 -30 17
-67 17 -60 0 -72 -6 -83 -38 -7 -24 -49 -47 -67 -36 -5 3 -7 20 -4 38 6 32 95
271 109 294 5 6 26 12 47 12 30 0 42 -5 51 -21z m239 -124 l5 -140 65 -5 c58
-4 65 -7 68 -27 2 -13 0 -23 -5 -24 -47 -6 -163 -4 -180 2 -22 8 -23 12 -23
162 0 161 5 181 45 175 19 -3 20 -12 25 -143z m588 133 c7 -7 12 -35 12 -64 0
-58 7 -64 70 -64 63 0 70 6 70 64 0 62 10 79 41 74 l24 -3 3 -161 c2 -138 0
-163 -14 -174 -27 -23 -49 0 -52 56 -4 91 -6 94 -61 94 -76 0 -81 -4 -81 -69
0 -67 -9 -84 -41 -79 -24 3 -24 3 -27 158 -1 85 0 160 2 167 7 16 38 17 54 1z
m490 -1 c6 -6 36 -79 67 -161 47 -123 54 -151 43 -162 -20 -20 -55 -6 -68 27
-14 34 -37 41 -106 37 -42 -3 -51 -7 -62 -30 -17 -37 -44 -51 -66 -35 -16 12
-13 25 40 167 31 85 62 158 68 162 18 12 73 9 84 -5z m387 -1 c57 -24 71 -75
34 -125 -19 -26 -20 -31 -6 -57 8 -16 18 -54 22 -85 6 -46 4 -57 -9 -62 -35
-14 -51 7 -70 96 -8 33 -44 52 -80 43 -23 -6 -25 -11 -28 -68 -3 -68 -23 -93
-52 -69 -13 11 -16 39 -16 171 0 86 3 160 7 163 12 13 163 7 198 -7z m190 -8
c2 -13 6 -39 7 -58 2 -19 7 -35 13 -35 5 0 20 16 33 35 39 59 61 80 82 80 36
0 33 -27 -9 -89 -23 -33 -41 -64 -41 -68 0 -5 23 -44 50 -88 55 -87 56 -90 36
-98 -30 -12 -57 7 -98 69 -23 35 -47 63 -53 61 -5 -2 -11 -28 -13 -58 -3 -61
-22 -85 -53 -68 -17 9 -19 24 -19 168 0 87 3 161 7 164 16 16 53 6 58 -15z
m687 10 c10 -25 -4 -38 -41 -38 -20 0 -42 -5 -49 -12 -8 -8 -12 -52 -12 -133
0 -137 -10 -166 -48 -146 -21 11 -22 19 -22 141 0 140 0 140 -60 150 -26 4
-36 11 -38 28 -3 22 -2 22 131 22 99 0 136 -3 139 -12z m294 -21 c29 -34 31
-76 4 -110 -18 -23 -19 -28 -6 -58 24 -57 30 -123 13 -137 -21 -17 -46 -4 -53
27 -14 70 -22 87 -45 100 -16 9 -36 11 -52 7 -25 -6 -27 -10 -27 -60 0 -64
-19 -92 -51 -76 -18 10 -19 23 -19 169 0 87 3 161 8 165 4 5 51 6 106 4 93 -4
100 -5 122 -31z m271 25 c21 -13 128 -305 118 -322 -14 -23 -53 -10 -74 25
-20 34 -22 35 -80 35 -62 0 -84 -11 -96 -49 -10 -32 -65 -35 -65 -4 0 18 84
252 105 294 12 23 22 29 48 29 17 0 37 -4 44 -8z m397 -6 c50 -21 78 -67 83
-141 5 -53 2 -69 -18 -105 -33 -59 -78 -79 -179 -83 -63 -1 -83 1 -90 13 -15
23 -13 303 2 318 17 17 160 15 202 -2z m214 -152 c2 -132 0 -163 -12 -173 -11
-9 -20 -10 -35 -1 -20 10 -21 19 -21 160 0 81 3 156 6 165 4 10 16 15 33 13
l26 -3 3 -161z m167 158 c6 -4 32 -51 57 -104 26 -54 52 -98 58 -98 6 0 10 34
10 86 0 93 10 124 40 124 28 0 31 -24 28 -190 l-3 -145 -48 -3 -47 -3 -45 92
c-24 50 -50 98 -57 106 -11 14 -14 13 -19 -8 -4 -13 -7 -61 -8 -106 -1 -85 -9
-99 -43 -81 -16 8 -18 26 -18 167 0 87 3 161 7 164 9 9 75 9 88 -1z m1652 -4
c5 -7 22 -59 37 -115 16 -57 32 -103 36 -103 10 0 26 42 46 125 25 105 26 107
87 103 l52 -3 3 -161 c2 -135 0 -163 -13 -174 -12 -10 -18 -10 -30 0 -11 9
-15 34 -15 94 0 137 -18 164 -44 69 -35 -129 -42 -146 -61 -159 -16 -11 -25
-11 -44 -1 -18 9 -28 29 -41 83 -10 38 -26 88 -36 110 l-19 39 -5 -115 -5
-115 -30 0 -30 0 -3 159 c-2 121 1 161 10 168 20 12 95 9 105 -4z m547 -9 c46
-36 51 -115 10 -160 -9 -10 -37 -21 -63 -24 -81 -11 -81 -11 -81 -65 0 -31 -6
-54 -16 -64 -18 -18 -23 -19 -44 -6 -11 7 -14 38 -14 163 1 84 4 159 8 165 5
8 38 12 90 12 69 0 88 -4 110 -21z m297 -19 c9 -19 36 -92 60 -163 36 -103 41
-129 30 -136 -21 -14 -52 0 -62 28 -14 34 -26 41 -79 41 -66 0 -84 -8 -99 -41
-10 -22 -19 -29 -42 -29 -35 0 -37 16 -10 86 11 27 31 81 46 119 51 138 50
137 98 133 37 -3 44 -7 58 -38z m262 23 c8 -10 34 -57 58 -105 23 -49 46 -88
50 -88 5 0 10 43 11 96 3 101 14 125 52 111 14 -6 16 -27 16 -166 0 -148 -2
-161 -19 -171 -11 -5 -34 -7 -51 -3 -29 5 -36 15 -80 109 -27 57 -53 104 -59
104 -7 0 -11 -27 -12 -67 -1 -61 -4 -113 -8 -136 0 -5 -13 -7 -28 -5 l-28 3
-3 155 c-1 85 0 160 2 167 8 20 80 16 99 -4z m333 -10 c67 -109 64 -106 85
-87 10 9 19 21 19 26 0 23 52 88 70 88 37 0 32 -26 -19 -116 -28 -48 -52 -95
-52 -104 -1 -8 -2 -37 -3 -63 -2 -50 -17 -70 -45 -59 -25 9 -31 23 -31 82 -1
42 -7 67 -30 105 -79 134 -84 155 -36 155 17 0 31 -9 42 -27z"/>
<path d="M4865 7750 c3 -5 8 -10 11 -10 2 0 4 5 4 10 0 6 -5 10 -11 10 -5 0
-7 -4 -4 -10z"/>
<path d="M4690 7500 c0 -13 18 -22 24 -11 3 5 -1 11 -9 15 -8 3 -15 1 -15 -4z"/>
<path d="M5600 7131 c0 -5 7 -12 16 -15 24 -9 27 -7 10 9 -17 17 -26 19 -26 6z"/>
<path d="M4480 7109 c0 -5 5 -7 10 -4 6 3 10 8 10 11 0 2 -4 4 -10 4 -5 0 -10
-5 -10 -11z"/>
<path d="M5681 6994 c0 -11 3 -14 6 -6 3 7 2 16 -1 19 -3 4 -6 -2 -5 -13z"/>
<path d="M5880 6656 c0 -9 5 -16 10 -16 6 0 10 4 10 9 0 6 -4 13 -10 16 -5 3
-10 -1 -10 -9z"/>
<path d="M5500 6651 c0 -9 24 -21 41 -21 5 0 9 7 9 15 0 9 -9 15 -25 15 -14 0
-25 -4 -25 -9z"/>
<path d="M3945 6100 c-8 -13 4 -32 16 -25 12 8 12 35 0 35 -6 0 -13 -4 -16
-10z"/>
<path d="M4972 5908 c-16 -16 -15 -28 3 -28 8 0 15 2 15 4 0 2 3 11 6 20 7 19
-7 21 -24 4z"/>
<path d="M4847 5706 c-4 -10 -5 -21 -2 -24 9 -9 17 6 13 25 -3 17 -4 17 -11
-1z"/>
<path d="M4840 5645 c0 -8 5 -15 10 -15 6 0 10 7 10 15 0 8 -4 15 -10 15 -5 0
-10 -7 -10 -15z"/>
<path d="M4737 5543 c-12 -11 -8 -23 8 -23 8 0 15 7 15 15 0 16 -12 20 -23 8z"/>
<path d="M4731 5497 c-6 -8 -8 -16 -5 -20 10 -9 34 4 34 19 0 18 -14 18 -29 1z"/>
<path d="M4720 5450 c0 -5 5 -10 11 -10 5 0 7 5 4 10 -3 6 -8 10 -11 10 -2 0
-4 -4 -4 -10z"/>
<path d="M3951 4764 c0 -11 3 -14 6 -6 3 7 2 16 -1 19 -3 4 -6 -2 -5 -13z"/>
<path d="M4252 4645 c-11 -12 -10 -15 2 -15 22 0 46 11 46 21 0 14 -34 10 -48
-6z"/>
<path d="M2738 3732 c-4 -12 1 -18 13 -19 16 -2 17 2 9 18 -13 24 -16 24 -22
1z"/>
<path d="M2676 3705 c5 -11 11 -12 25 -4 26 13 24 19 -6 19 -17 0 -23 -4 -19
-15z"/>
<path d="M2793 3693 c-10 -4 -9 -8 1 -19 16 -16 42 -19 50 -5 7 10 -35 30 -51
24z"/>
<path d="M2420 3260 c0 -11 2 -20 4 -20 2 0 6 9 9 20 3 11 1 20 -4 20 -5 0 -9
-9 -9 -20z"/>
<path d="M2343 3126 c-16 -7 -23 -20 -23 -39 l0 -27 42 27 c30 20 37 29 25 31
-10 2 -15 8 -12 13 8 11 -3 10 -32 -5z"/>
<path d="M3437 3088 c-8 -30 -1 -35 12 -9 6 11 7 22 2 25 -5 3 -11 -4 -14 -16z"/>
<path d="M2290 3026 c0 -8 5 -18 10 -21 6 -3 10 3 10 14 0 12 -4 21 -10 21 -5
0 -10 -6 -10 -14z"/>
<path d="M5387 1993 c-4 -3 -7 -39 -7 -80 0 -82 6 -90 64 -79 25 5 37 14 46
36 16 38 7 98 -17 116 -19 14 -75 19 -86 7z"/>
<path d="M6200 1310 c-26 -26 -33 -59 -28 -127 4 -46 10 -61 33 -81 53 -45
121 -10 135 69 11 58 2 104 -26 134 -29 32 -85 34 -114 5z"/>
<path d="M956 1281 c-4 -5 -13 -29 -21 -52 -11 -31 -12 -45 -4 -55 16 -19 68
-18 76 2 13 34 -34 132 -51 105z"/>
<path d="M2282 1277 c-17 -22 -35 -84 -29 -101 8 -21 73 -22 80 -1 6 15 -20
102 -33 110 -4 3 -12 -1 -18 -8z"/>
<path d="M2607 1317 c-13 -9 -18 -23 -15 -47 3 -32 6 -35 40 -38 55 -5 100 47
66 76 -23 18 -72 23 -91 9z"/>
<path d="M3742 1322 c-8 -6 -12 -24 -10 -48 3 -36 5 -39 36 -42 59 -6 106 46
70 76 -19 15 -81 24 -96 14z"/>
<path d="M4116 1281 c-4 -5 -13 -29 -21 -52 -18 -50 -8 -69 37 -69 37 0 44 20
27 78 -14 45 -31 62 -43 43z"/>
<path d="M4433 1319 c-17 -17 -18 -200 -1 -217 15 -15 57 -16 93 -2 57 22 73
147 24 196 -29 28 -98 42 -116 23z"/>
<path d="M7023 1323 c-8 -3 -13 -23 -13 -49 0 -51 14 -62 63 -47 26 7 33 14
35 40 4 45 -41 74 -85 56z"/>
<path d="M7349 1236 c-19 -53 -10 -76 30 -76 43 0 52 18 32 70 -22 60 -42 62
-62 6z"/>
</g>
</svg>
